<?xml version="1.0"?><svg width="858" height="998" xmlns="http://www.w3.org/2000/svg">
 <title>needle</title>

 <g>
  <title>Layer 1</title>
  <path id="svg_1" fill="#ff8080" d="m772,0l-174,475l0,1l-1,2l-2,4l-1,5l-2,5l-2,6l-1,6l-2,6l-1,6l0,5l0,4l2,6l3,5l4,5l4,5l5,4l4,3l2,2l1,0l2,-2l5,-5l5,-5l4,-6l2,-3l0,-4l0,-5l1,-6l-1,-7l0,-7l0,-7l0,-6l-1,-5l0,-4l0,-3l-1,-1l145,-479z"/>
  <path id="svg_2" fill="#ff8080" d="m274,972l-4,-2l-4,-2l-4,-2l-4,-2l-5,-2l-4,-2l-4,-2l-5,-2l-4,-2l-4,-2l-5,-2l-4,-2l-5,-2l-4,-2l-4,-2l-5,-1l-4,-2l-5,-2l-4,-2l-5,-2l-4,-2l-5,-2l-4,-2l-5,-1l-4,-2l-5,-2l-4,-2l-5,-2l-4,-2l-5,-2l-4,-2l-4,-2l-5,-3l-4,-2l-4,-2l-4,-2l-5,-2l-4,-2l-4,-2l-4,-2l-3,-2l-4,-3l-4,-2l-4,-2l-3,-2l-4,-2l-3,-3l-3,-2l-3,-2l-4,-2l-3,-3l-3,-2l-2,-3l-3,-2l-3,-3l1,1l-4,-5l-3,-5l-2,-4l-2,-5l-1,-4l0,-5l0,-4l1,-4l1,-5l2,-3l1,-3l2,-3l3,-2l2,-3l3,-3l3,-2l3,-2l4,-3l4,-2l3,-2l5,-2l4,-1l5,-2l5,-1l5,-2l5,-1l6,-1l6,-1l-1,0l4,0l3,-1l4,0l4,0l3,0l4,1l4,0l3,1l4,0l4,0l4,1l3,1l4,1l4,1l4,1l3,1l4,1l4,1l4,1l4,2l4,2l3,1l4,2l4,2l4,2l4,2l4,2l4,2l4,2l4,2l4,3l4,3l4,2l4,3l4,3l4,3l5,3l4,3l4,3l4,3l4,3l5,4l4,3l4,4l4,4l5,3l5,6l4,5l3,4l3,5l1,4l1,4l1,4l0,4l0,3l-1,2l0,0l-4,4l-5,1l-6,-1l-6,-2l-4,-2l-5,-3l-5,-2l-5,-2l-5,-3l-5,-3l-4,-2l-5,-2l-4,-3l-5,-3l-4,-2l-5,-3l-4,-3l-4,-2l-4,-3l-4,-3l-4,-3l-4,-2l-4,-3l-4,-3l-3,-3l-4,-3l-3,-3l-3,-2l-4,-3l-3,-3l-3,-3l-3,-3l-3,-3l-3,-3l-2,-3l-3,-3l-2,-2l-2,-3l-3,-3l-2,-3l-2,-3l-2,-3l-1,-3l-2,-3l-1,-2l-2,-3l0,0l-1,-4l-1,-5l-1,-5l-1,-4l0,-4l-1,-5l0,-4l0,-4l1,-4l0,-4l1,-4l1,-4l1,-4l1,-4l1,-4l2,-3l1,-4l2,-3l2,-4l2,-4l2,-3l3,-3l2,-3l2,-3l3,-3l2,-3l3,-3l3,-3l3,-3l3,-3l3,-2l3,-3l3,-3l3,-2l3,-3l3,-2l3,-2l3,-2l4,-2l3,-3l3,-2l3,-1l3,-2l3,-2l3,-2l4,-1l2,-2l3,-1l3,-2l3,-1l3,-2l2,-1l3,-1l2,-1l3,-1l-2,0l4,0l4,0l4,0l4,1l4,1l4,0l3,1l4,2l3,1l4,1l3,2l4,2l3,2l3,3l3,2l3,2l3,3l4,3l3,3l3,3l3,3l3,3l3,3l3,4l2,3l4,4l2,4l3,3l3,4l3,4l3,4l3,3l2,4l3,4l3,4l3,4l3,4l3,4l2,4l3,3l2,4l3,4l3,4l3,3l3,4l3,4l2,3l3,4l3,3l3,4l3,3l3,3l3,3l3,4l3,2l4,3l3,3l3,3l3,3l4,2l3,2l4,3l3,2l4,2l3,2l4,2l4,1l4,2l4,1l4,1l4,1l4,1l4,1l4,0l0,0l3,1l2,0l3,0l3,1l3,0l4,-1l2,0l4,-1l3,0l3,-1l3,-1l4,-2l3,-2l3,-1l3,-3l3,-2l3,-3l3,-3l4,-4l3,-4l3,-4l3,-4l2,-5l3,-6l3,-5l3,-6l3,-7l1,-3l1,-3l1,-3l2,-4l1,-3l1,-3l1,-4l2,-4l1,-3l1,-4l1,-4l1,-4l1,-3l1,-4l2,-4l1,-5l1,-4l1,-4l1,-4l1,-4l1,-5l0,-4l2,-5l0,-4l1,-5l1,-4l1,-5l1,-5l0,-4l1,-5l0,-4l1,-5l1,-5l0,-5l1,-4l0,-5l0,-5l1,-5l0,-5l0,-4l1,-5l0,-5l0,-5l0,-5l0,-5l0,-5l0,-4l0,-5l0,-5l0,-5l-1,-5l0,-4l0,-5l-1,-4l0,-5l-1,-5l0,0l-2,-6l-1,-5l-3,-5l-3,-4l-2,-3l-4,-3l-3,-2l-4,-2l-4,-2l-4,-1l-3,-1l-4,0l-4,-1l0,0l-4,0l-3,1l-4,1l-3,1l-3,1l-4,2l-3,2l-4,2l-3,2l-3,3l-3,3l-3,4l-3,3l-4,4l-3,5l-2,4l-4,5l-2,5l-3,5l-3,6l-2,4l-2,4l-1,4l-2,4l-2,5l-1,4l-1,4l-1,5l-1,4l-1,4l0,5l-1,4l0,4l-1,5l0,4l0,5l0,4l0,5l0,4l0,4l1,5l0,4l1,5l0,4l1,4l1,5l1,4l1,4l1,5l1,4l1,4l1,4l1,4l2,4l1,4l2,4l1,4l2,4l1,3l2,4l2,4l2,4l2,3l2,3l2,4l-1,-1l3,6l3,6l2,5l3,5l3,6l2,4l3,5l3,4l3,5l2,4l3,4l3,3l3,4l3,3l3,3l2,3l3,3l3,2l3,2l3,3l3,1l3,2l3,1l3,2l3,1l3,1l3,0l4,1l5,0l4,-1l5,0l5,-2l4,-2l4,-2l4,-3l4,-4l5,-4l-6,-5l-4,4l-5,4l-5,2l-4,3l-5,1l-4,1l-5,0l-5,0l-3,-1l-3,-1l-2,-1l-3,-1l-3,-2l-3,-2l-3,-2l-3,-2l-3,-2l-3,-3l-3,-3l-2,-3l-3,-4l-3,-3l-3,-4l-3,-4l-3,-4l-2,-5l-3,-4l-3,-5l-3,-5l-2,-5l-3,-6l-3,-6l-3,-6l0,0l0,0l-2,-3l-2,-4l-2,-3l-1,-4l-2,-4l-2,-3l-1,-4l-2,-4l-2,-4l-1,-4l-2,-4l-1,-4l-1,-4l-1,-5l-1,-4l-1,-4l-1,-4l-1,-5l-1,-4l-1,-4l-1,-5l0,-4l0,-5l-1,-4l0,-5l0,-4l0,-5l0,-4l0,-4l0,-5l1,-4l0,-5l1,-4l0,-5l1,-4l1,-4l1,-4l2,-5l1,-4l1,-4l2,-4l2,-4l2,-5l3,-5l3,-6l3,-5l3,-5l3,-4l3,-5l3,-4l3,-3l3,-3l3,-3l4,-2l3,-3l3,-2l4,-1l3,-1l3,-1l3,-1l4,0l0,0l4,1l4,1l4,0l4,2l4,2l3,2l3,3l2,3l2,4l2,5l2,5l0,0l0,5l1,4l0,5l0,5l1,5l0,4l0,5l0,5l0,5l0,5l0,4l0,5l0,5l0,5l0,5l0,4l-1,5l0,5l0,5l-1,5l0,5l-1,4l0,5l-1,5l0,5l-1,4l-1,5l0,5l-1,4l-1,5l-1,4l-1,5l-1,4l-1,5l0,4l-1,5l-1,4l-1,4l-1,4l-1,4l-2,4l-1,4l-1,4l-1,4l-1,4l-2,4l-1,4l-1,3l-1,4l-1,3l-1,4l-2,3l-1,3l-1,3l-2,3l-1,4l-2,4l-1,4l-2,3l-2,4l-2,4l-2,3l-3,4l-2,3l-2,3l-3,4l-2,3l-3,2l-3,3l-3,3l-4,2l-3,2l-4,1l-3,1l-4,2l-4,0l-4,1l-4,0l-5,-1l-5,0l0,0l-4,-1l-4,-1l-4,0l-4,-1l-4,-1l-4,-2l-3,-1l-4,-2l-4,-2l-3,-2l-4,-2l-3,-2l-3,-2l-4,-3l-3,-2l-3,-3l-3,-3l-4,-2l-3,-4l-3,-3l-3,-3l-3,-3l-3,-3l-3,-4l-3,-3l-2,-3l-3,-4l-3,-4l-3,-3l-3,-4l-2,-4l-3,-4l-3,-3l-3,-4l-2,-4l-3,-4l-3,-3l-2,-4l-3,-4l-3,-4l-3,-4l-3,-4l-3,-3l-2,-4l-3,-4l-3,-3l-3,-4l-3,-4l-3,-3l-2,-4l-3,-3l-3,-3l-3,-3l-3,-3l-3,-3l-3,-3l-4,-3l-2,-2l-4,-3l-3,-2l-3,-2l-3,-2l-4,-2l-3,-2l-4,-2l-3,-1l-4,-2l-4,-1l-3,-1l-4,-1l-4,0l-4,-1l-4,0l-4,0l-4,0l-1,0l0,1l-6,2l-5,2l-4,3l-5,2l-5,3l-5,2l-4,3l-4,2l-5,3l-4,2l-4,3l-4,3l-4,3l-3,2l-4,3l-4,3l-3,3l-3,3l-3,3l-3,3l-3,3l-3,3l-3,3l-2,3l-3,3l-2,3l-2,3l-2,4l-2,3l-2,3l-2,3l-1,3l-2,4l-1,3l-2,3l-1,4l-1,3l-1,4l-1,3l0,3l-1,4l0,3l0,4l-1,3l0,4l1,3l0,4l0,3l1,4l0,3l1,4l1,4l1,3l1,4l0,0l0,0l2,3l1,3l2,3l2,3l1,3l2,2l3,4l2,2l2,3l2,3l3,3l3,3l3,3l2,3l3,3l3,3l3,3l4,3l3,3l3,2l4,3l3,3l4,3l4,3l4,3l4,2l4,3l4,3l4,3l4,2l4,3l5,3l4,2l4,3l5,3l5,2l4,3l5,2l5,3l5,2l4,2l5,3l5,2l8,3l6,1l5,-1l4,0l3,-2l2,-2l2,-3l1,-2l1,-3l1,-4l0,-4l0,-4l-1,-4l-2,-4l-2,-5l-2,-4l-3,-4l-3,-5l-4,-4l-4,-4l-5,-4l-4,-4l-4,-3l-4,-4l-4,-3l-4,-3l-5,-4l-3,-3l-5,-3l-4,-3l-4,-3l-4,-2l-4,-3l-4,-3l-4,-2l-4,-3l-4,-2l-4,-2l-4,-3l-4,-2l-4,-2l-3,-2l-4,-2l-4,-1l-4,-2l-4,-2l-4,-1l-3,-2l-4,-1l-4,-1l-4,-2l-4,-1l-3,-1l-4,0l-4,-2l-4,0l-3,-1l-4,0l-4,-1l-3,0l-4,-1l-4,0l-3,0l-4,0l-3,0l-4,0l-4,0l-3,0l0,0l-6,1l-6,1l-6,1l-5,2l-5,2l-5,1l-5,2l-4,2l-4,2l-4,2l-4,2l-4,3l-3,3l-3,2l-3,3l-3,3l-2,3l-2,3l-1,3l-2,3l-2,4l0,5l-1,4l0,4l1,5l1,5l1,4l2,4l2,5l3,4l3,5l1,0l0,0l2,2l3,3l3,3l3,2l3,2l3,3l4,2l3,3l4,2l3,2l4,2l4,3l3,2l4,2l4,3l4,1l4,3l4,2l5,2l4,2l4,2l4,2l5,2l4,2l5,2l4,2l5,2l4,2l4,2l5,2l5,2l4,2l5,2l4,2l5,2l5,2l4,2l5,2l4,2l5,2l4,2l4,2l5,2l4,1l5,2l4,2l4,2l5,2l4,2l4,2l4,2l5,2l4,2l4,2l4,2l3,-7z"/>
  <path id="svg_3" fill="#000" d="m597,543l2,-2l2,-4l1,-3l1,-5l2,-5l1,-6l1,-6l1,-6l1,-6l1,-5l1,-5l0,-5l1,-4l0,0l0,1l-1,1l244,-462l0,-3l0,-3l-2,-2l-3,0l-3,0l-2,2l-272,454l-1,1l-1,3l-2,3l-3,4l-3,5l-2,5l-3,6l-3,5l-2,6l-2,5l-1,5l-1,4l0,5l2,6l2,5l3,6l4,5l3,4l2,3l2,3l2,1l2,2l3,0l3,-1l1,-3l0,-3l-1,-3l-3,-3l-3,-4l-3,-5l-3,-5l-2,-4l-2,-5l0,-4l0,-3l1,-4l2,-5l2,-4l3,-6l3,-5l3,-5l3,-5l2,-5l3,-4l0,-1l1,0l0,0l0,-2l1,0l1,-2l0,-1l1,-1l1,-2l2,-2l1,-2l1,-2l1,-3l2,-2l1,-2l2,-3l2,-3l2,-3l1,-3l2,-4l2,-3l3,-3l2,-4l2,-4l2,-3l3,-5l2,-4l2,-4l3,-4l3,-4l2,-5l3,-4l3,-5l3,-5l2,-5l4,-4l2,-6l3,-4l3,-5l3,-5l4,-6l3,-5l3,-5l3,-6l3,-5l4,-5l3,-6l3,-5l4,-6l3,-6l3,-5l4,-6l3,-5l3,-6l4,-6l3,-6l4,-5l3,-6l3,-6l4,-6l4,-5l3,-6l3,-6l4,-5l3,-6l4,-6l3,-5l3,-6l3,-5l4,-6l3,-5l3,-6l3,-5l4,-5l3,-6l3,-5l3,-5l3,-5l3,-5l3,-6l3,-4l3,-5l3,-5l3,-5l3,-4l2,-5l3,-4l3,-5l2,-4l3,-4l2,-4l2,-4l3,-4l2,-4l2,-3l2,-4l2,-3l2,-3l2,-4l2,-3l2,-3l1,-2l2,-3l1,-2l1,-3l2,-2l1,-2l1,-2l1,-1l1,-2l1,-1l1,-1l0,-1l1,-1l0,-1l1,0l0,-1l0,0l-2,2l-3,1l-3,-1l-2,-2l-1,-3l1,-2l-244,462l0,0l0,1l-1,0l-1,6l0,6l-1,6l-1,6l-1,6l-1,5l-1,5l-1,5l-1,4l-1,3l-1,2l-1,2l-1,2l0,3l1,3l3,1l3,0l2,-1z"/>
  <path id="svg_4" fill="#000" d="m580,499l5,-3l3,-2l3,0l1,0l1,1l1,1l0,5l-1,6l-2,8l-4,6l-4,5l-5,3l-3,0l-1,-1l-1,-1l-1,-1l-1,-5l1,-6l3,-7l0,-1l-1,-1l-1,0l0,0l-2,0l0,1l-2,5l-1,6l-1,5l2,4l1,3l1,1l2,1l4,1l3,-1l4,-2l4,-4l3,-4l4,-6l2,-6l1,-6l0,-5l-1,-4l-1,-2l-1,-2l-2,-1l-5,0l-5,2l-5,4l-1,1l0,1l1,1l1,1l1,0l0,-1z"/>
  <path id="svg_5" fill="#000" d="m242,987l-4,-2l-4,-3l-4,-2l-4,-2l-4,-3l-5,-2l-4,-3l-4,-2l-4,-2l-5,-3l-4,-2l-4,-2l-5,-2l-4,-3l-4,-2l-5,-2l-4,-2l-4,-3l-5,-2l-4,-2l-4,-2l-5,-3l-4,-2l-4,-3l-5,-2l-4,-2l-5,-3l-4,-2l-4,-2l-4,-3l-4,-2l-4,-2l-4,-3l-4,-2l-5,-3l-3,-2l-4,-3l-4,-2l-4,-3l-3,-2l-4,-3l-3,-2l-3,-3l-4,-2l-3,-3l-3,-3l-3,-2l-3,-3l-3,-2l-2,-3l-3,-3l-2,-3l-2,-3l0,1l0,0l0,0l-2,-4l-2,-5l-2,-5l0,-4l-1,-5l0,-4l1,-5l1,-4l2,-4l2,-3l2,-3l2,-3l3,-2l3,-3l3,-3l3,-2l4,-2l4,-2l4,-2l4,-2l4,-2l5,-1l5,-2l5,-1l6,-1l5,-1l6,-1l6,-1l0,0l-1,0l5,0l5,0l5,1l4,0l5,1l4,0l5,1l4,1l5,1l4,1l4,2l5,1l4,2l4,1l4,2l4,2l4,2l4,2l4,2l4,2l3,2l4,2l4,3l4,2l3,3l4,2l3,3l4,2l3,3l3,3l4,2l3,3l3,3l3,3l3,3l3,2l3,3l3,3l3,3l3,3l3,2l2,3l3,3l2,3l3,2l2,3l4,5l3,5l3,5l2,5l1,5l1,4l0,4l-1,4l-2,4l1,0l0,-1l-4,4l-5,1l-6,-2l-5,-2l-4,-3l-5,-2l-5,-3l-4,-3l-5,-2l-4,-3l-5,-3l-4,-3l-4,-3l-4,-3l-5,-3l-4,-3l-4,-3l-3,-3l-4,-3l-4,-3l-3,-3l-4,-3l-3,-4l-3,-3l-4,-3l-3,-3l-3,-3l-3,-3l-3,-3l-3,-4l-2,-3l-2,-3l-3,-3l-2,-3l-2,-3l-2,-4l-2,-3l-2,-3l-2,-3l-2,-3l-1,-3l-1,-3l-2,-4l-1,-2l-1,-4l0,1l0,0l-1,-5l0,-4l0,-5l0,-4l0,-5l0,-4l1,-4l1,-5l0,-4l1,-4l2,-4l1,-4l2,-4l1,-3l2,-4l2,-3l2,-4l2,-4l2,-3l3,-3l3,-3l2,-4l3,-3l2,-3l3,-3l3,-3l3,-3l4,-2l2,-3l4,-2l3,-3l3,-3l4,-2l3,-2l3,-3l4,-2l3,-2l3,-2l4,-2l3,-2l4,-2l3,-1l3,-2l4,-2l3,-2l3,-1l3,-2l3,-1l3,-1l3,-2l3,-1l3,-1l3,-1l2,-1l3,-1l2,-1l0,0l-1,0l-1,0l4,0l4,1l4,0l4,1l4,1l3,1l4,1l3,2l3,2l4,1l3,2l3,3l3,2l3,2l3,3l3,3l2,3l3,3l3,3l3,3l2,4l3,3l2,4l3,4l2,3l3,4l2,4l3,4l2,4l3,4l2,4l2,5l3,4l2,4l3,4l2,4l2,4l2,4l3,4l2,4l2,4l3,4l2,4l2,4l3,3l2,4l3,4l2,4l3,3l2,4l3,3l3,4l3,3l2,4l3,3l3,3l3,3l3,3l3,3l3,2l3,3l3,2l4,2l3,3l4,2l4,2l3,1l4,2l4,2l4,1l4,1l4,1l5,1l4,1l0,0l-1,0l3,0l3,1l2,0l3,0l3,1l3,0l3,-1l3,0l4,0l3,-1l3,-1l3,-1l4,-1l3,-2l4,-1l3,-2l3,-3l4,-2l3,-3l4,-3l3,-3l4,-4l3,-4l3,-4l4,-5l3,-5l3,-6l3,-6l4,-6l0,1l0,0l1,-3l2,-3l2,-4l1,-3l2,-3l1,-3l2,-3l2,-4l1,-3l2,-4l1,-4l2,-3l2,-4l1,-4l1,-4l2,-4l1,-4l2,-4l1,-4l2,-4l1,-4l2,-5l1,-4l1,-4l1,-4l2,-5l1,-4l1,-5l2,-4l1,-5l1,-4l1,-5l1,-4l1,-5l1,-5l1,-4l1,-5l1,-5l1,-4l0,-5l1,-5l1,-5l1,-4l0,-5l1,-5l1,-5l0,-4l0,-5l1,-5l0,-5l1,-4l0,-5l0,-5l0,-4l0,-5l0,-5l0,-4l0,-5l0,0l0,0l-1,-6l-1,-6l-2,-5l-2,-4l-3,-3l-2,-4l-4,-2l-3,-2l-3,-2l-4,-2l-3,-1l-4,-1l-4,-1l-3,0l0,-1l-1,0l0,0l-3,0l-4,1l-3,0l-3,1l-4,1l-3,1l-3,1l-4,2l-3,2l-3,2l-4,3l-3,3l-3,3l-3,3l-4,3l-3,4l-3,4l-4,4l-3,5l-3,4l-3,5l-4,5l-2,4l-2,4l-2,5l-2,4l-2,4l-2,4l-2,4l-1,5l-1,4l-2,4l-1,5l-1,4l-1,4l-1,5l-1,4l-1,5l0,4l0,4l-1,5l0,4l0,5l0,4l0,5l0,4l0,4l0,5l1,4l0,4l0,5l1,4l1,4l0,5l1,4l1,4l1,4l1,4l1,4l1,4l2,4l1,4l1,4l1,3l2,4l1,4l2,3l1,3l0,0l0,0l0,0l2,6l2,5l2,6l3,6l2,5l2,4l2,5l3,5l2,4l2,5l3,3l3,4l2,4l3,4l2,3l3,3l3,3l2,3l3,2l3,2l3,2l3,2l3,2l3,2l3,1l2,1l3,1l5,1l4,1l4,0l5,-1l4,0l4,-1l5,-2l4,-2l4,-2l5,-3l4,-2l4,-4l2,-3l0,-2l-1,-3l-2,-2l-4,0l-2,1l-5,4l-4,3l-5,3l-5,2l-4,1l-5,1l-4,0l-5,0l-4,-1l-3,-1l-3,-1l-3,-1l-3,-2l-3,-2l-2,-2l-3,-3l-3,-2l-3,-3l-2,-3l-3,-3l-3,-4l-2,-3l-3,-4l-2,-5l-3,-4l-2,-4l-3,-5l-2,-5l-2,-6l-2,-5l-3,-6l-2,-6l-2,-6l0,0l0,0l-2,-4l-1,-3l-2,-4l-1,-4l-1,-3l-2,-4l-1,-4l-1,-4l-1,-4l-1,-4l-1,-4l-1,-5l-1,-4l-1,-4l0,-4l-1,-5l0,-4l-1,-4l0,-5l-1,-5l0,-4l0,-4l0,-5l0,-4l1,-5l0,-4l1,-5l0,-4l1,-5l0,-4l1,-5l1,-4l1,-4l2,-5l1,-4l1,-5l2,-4l2,-4l1,-4l3,-4l2,-4l2,-4l2,-5l4,-5l3,-5l3,-5l4,-4l3,-5l3,-3l4,-4l3,-3l3,-4l4,-2l3,-3l3,-2l3,-2l4,-1l3,-1l3,-1l3,-1l4,0l3,0l-1,0l0,0l0,0l5,1l4,1l4,2l4,1l3,3l3,3l2,3l2,4l2,5l1,6l0,-1l0,5l0,4l0,5l0,5l-1,5l0,4l0,5l0,5l-1,5l0,5l-1,4l0,5l-1,5l0,5l-1,5l-1,5l-1,4l-1,5l0,5l-1,4l-1,5l-1,5l-1,5l-1,4l-1,5l-1,4l-2,5l-1,5l-1,4l-1,5l-1,4l-2,5l-1,4l-1,4l-2,5l-1,4l-2,4l-1,5l-1,4l-2,4l-2,4l-1,4l-2,3l-1,4l-2,4l-1,4l-2,3l-1,4l-2,4l-2,3l-1,3l-2,4l-2,3l-1,3l-2,3l-1,3l-1,0l-1,4l-2,3l-3,4l-2,4l-2,4l-2,3l-3,4l-3,3l-3,3l-2,4l-3,2l-3,3l-4,3l-3,3l-3,2l-4,2l-4,1l-3,2l-4,1l-4,1l-4,1l-5,0l-4,0l-4,-1l-5,-1l-1,0l0,0l-4,-1l-4,0l-4,-1l-4,-1l-4,-2l-3,-1l-4,-2l-3,-2l-4,-2l-3,-2l-4,-2l-3,-3l-3,-2l-3,-3l-3,-3l-3,-2l-3,-4l-3,-3l-3,-3l-2,-3l-3,-4l-2,-3l-3,-3l-3,-4l-2,-4l-3,-3l-2,-4l-2,-4l-3,-4l-2,-4l-3,-4l-2,-4l-2,-3l-2,-4l-3,-4l-2,-4l-2,-5l-2,-4l-3,-4l-2,-3l-2,-4l-3,-4l-2,-4l-2,-4l-3,-4l-2,-4l-2,-4l-3,-3l-2,-4l-3,-4l-2,-3l-3,-4l-3,-3l-2,-3l-3,-3l-3,-3l-3,-4l-2,-2l-3,-3l-3,-3l-3,-2l-4,-3l-3,-2l-3,-2l-4,-2l-3,-2l-3,-1l-4,-2l-4,-1l-4,-1l-3,-1l-4,0l-4,-1l-4,0l-5,0l-1,0l0,0l-1,0l-5,2l-5,2l-5,2l-5,2l-5,3l-5,2l-4,2l-5,2l-4,2l-4,3l-5,2l-4,3l-4,2l-4,3l-4,2l-4,3l-3,2l-4,3l-4,3l-3,2l-3,3l-3,3l-4,3l-2,3l-3,3l-3,2l-3,3l-2,3l-3,3l-2,3l-2,3l-3,3l-2,4l-2,3l-2,3l-1,3l-2,3l-1,3l-2,4l-1,3l-1,3l-2,4l-1,3l-1,3l0,4l-1,3l-1,4l0,3l0,3l-1,4l0,4l0,3l0,4l1,3l0,4l0,3l1,4l0,0l0,1l0,0l1,3l1,3l1,3l2,3l1,3l2,4l2,3l1,3l2,3l2,3l3,4l2,3l2,3l3,3l2,3l3,3l3,4l2,3l3,3l3,3l3,4l4,3l3,3l3,3l4,3l3,3l4,3l3,3l4,3l4,4l4,2l4,4l4,3l5,2l4,3l4,3l4,3l5,3l4,3l5,2l4,3l5,3l5,2l7,3l6,2l5,0l4,-1l4,-1l3,-2l2,-2l2,-2l1,-1l0,0l2,-4l1,-4l1,-3l0,-5l0,-4l0,-4l-1,-4l-2,-5l-1,-4l-3,-4l-2,-5l-4,-4l-3,-4l-3,-3l-2,-3l-3,-3l-2,-2l-3,-3l-3,-3l-2,-3l-3,-3l-3,-3l-3,-2l-3,-3l-3,-3l-3,-3l-3,-2l-3,-3l-4,-3l-3,-3l-3,-2l-4,-3l-3,-3l-4,-2l-3,-3l-4,-2l-4,-3l-3,-2l-4,-2l-4,-3l-4,-2l-4,-2l-4,-2l-4,-2l-4,-1l-4,-2l-4,-2l-4,-2l-5,-1l-4,-1l-4,-2l-5,-1l-4,-1l-5,-1l-4,0l-5,-1l-5,-1l-5,0l-4,0l-5,0l-5,0l0,0l-6,0l-5,1l-6,1l-5,1l-5,1l-5,1l-5,2l-4,2l-5,1l-4,2l-4,2l-4,2l-3,2l-4,2l-3,3l-3,3l-3,2l-3,3l-2,3l-2,3l-2,3l-2,3l-2,4l-2,5l-1,4l0,5l-1,4l1,5l1,5l1,5l1,4l2,5l3,5l0,0l1,1l2,2l2,3l3,3l3,3l2,3l3,2l3,3l3,3l3,2l4,3l3,3l3,2l4,3l3,2l4,3l4,2l4,3l4,2l3,3l5,2l4,2l3,3l5,2l4,3l4,2l4,3l4,2l5,2l4,2l4,3l5,2l4,2l4,3l5,2l4,2l4,3l5,2l4,2l4,3l5,2l4,2l4,2l4,2l5,3l4,2l4,2l5,3l4,2l4,2l4,2l4,3l4,2l4,3l4,2l3,1l3,-1l2,-2l1,-3l-1,-3l-2,-2z"/>
  <circle id="svg_10" fill="#fff" r="8" cy="385" cx="47"/>
  <circle id="svg_11" fill="#fff" r="9" cy="385" cx="46"/>
  <circle id="svg_12" fill="#fff" r="5" cy="386" cx="46"/>
  <circle id="svg_22" fill="#fff" r="7" cy="428" cx="58"/>
  <circle id="svg_23" fill="#fff" r="9" cy="428" cx="58"/>
  <circle id="svg_24" fill="#fff" r="6" cy="428" cx="58"/>
  <circle id="svg_34" fill="#fff" r="8" cy="455" cx="93"/>
  <circle id="svg_35" fill="#fff" r="9" cy="455" cx="93"/>
  <circle id="svg_36" fill="#fff" r="6" cy="455" cx="93"/>
  <circle id="svg_37" fill="#fff" r="8" cy="443" cx="128"/>
  <circle id="svg_38" fill="#fff" r="10" cy="443" cx="128"/>
  <circle id="svg_39" fill="#fff" r="6" cy="444" cx="128"/>
  <circle id="svg_40" fill="#fff" r="7" cy="432" cx="166"/>
  <circle id="svg_42" fill="#fff" r="5" cy="432" cx="166"/>
  <circle id="svg_85" fill="#000" r="5" cy="503" cx="576"/>
  <path id="svg_86" fill="#000" d="m582,561l15,-16l1,-3l0,-3l-2,-2l-2,-2l-3,0l-3,2l-15,16l-1,3l0,2l1,3l3,1l3,0l3,-1z"/>
 </g>
</svg>