<svg version="1" xmlns="http://www.w3.org/2000/svg" width="2160" height="1136" viewBox="0 0 1620.000000 852.000000"><path  fill="#a26002" d="M1014 14.5V28h-3.9c-3.9 0-4 .1-4.3 3.7l-.3 3.8-8.7.3-8.8.3v49.5l-11.7 8.6c-20.2 14.6-30.1 19.7-51.3 26.6-40.1 13-81.9 19.6-142.5 22.3-59.5 2.7-110.2-3.6-158-19.6-21.4-7.1-34.1-12.5-53-22.4-7.1-3.7-14.7-7.3-16.7-8l-3.8-1.3V76h-14v9.5c0 9.3 0 9.5-2.7 10.9-1.6.8-6.6 4.4-11.2 8-31.2 24.7-78.4 37.3-125.8 33.8-18.9-1.5-28.2-3.3-50.8-10.3-24.8-7.5-33.1-9.8-41.5-11.2l-7.5-1.3-.3-16.2L297 83h-40v37.6l-3.9 2.2c-9.8 5.6-19.1 17-29.2 35.9l-4.4 8.3H197v21.9c0 14.5.4 22.1 1.1 22.3.6.2.1 3.9-1.5 10.3-3.9 15.2-5.1 30.1-3.7 44.2 1.6 15.6 4.5 28.7 13.5 59.8 7.3 25.4 10.7 40.5 12.1 53.2.7 6 .6 6.3-1.4 6.3-2.1 0-2.1.4-2.1 18.5V422h-18v-11h-14v53h14v-11h18v35.9l15.3.3 15.2.3.3 50.2.2 50.1 2.8.6c1.5.3 5.1.8 8 1.1l5.2.7V678.9l8.3.3 8.2.3.3 20.3.2 20.2h-15v-19h-20v47h20v-20.1l7.3.3 7.2.3.3 20.3.2 20.2H94.2l-46.6 25.7L.9 820.5l.7 4.5c1 6.7 4.1 14.9 7 18.7 5.5 7.2-5.1 6.6 134.9 7.5 162.7 1 1188.6-.9 1195.8-2.2 7.3-1.4 17.2-6.5 19.8-10.2 1.4-1.9 2.4-5.1 2.7-8.2.4-4.8.1-5.5-4.1-11.2-8-10.9-30-28.3-59.9-47.4l-13.3-8.5-18.9-.1-18.8-.1-2.4-2.9c-5-6.2-26.6-51.6-29-60.8l-.6-2.6h78.2v-96h-9.1l.3-9.8.3-9.7h88l.3 16.3.2 16.2h-7v19h25v-19h-7l.2-16.3.3-16.2 12.8-.3 12.7-.3V564h-126v-24h-27v61h-18V475h-21v33h-12v23.1l-13.2-.3-13.2-.3.2-21c.1-11.6.5-52.4.8-90.8l.7-69.7H1325v78.7c0 54.6.4 80 1.1 82.8 1.5 5.2 8.2 11.9 13.4 13.4 5.2 1.4 46.7 1.5 51.9 0 5.5-1.5 12-8.4 13.4-14.1.8-3.2 1.2-18 1.2-46.7V421h165.2l1.8 2.3c1 1.3 4.2 3.6 7.2 5.2 4.5 2.5 6.4 2.9 12.3 2.9 4 0 8.5-.7 10.6-1.6 16.4-7.1 21.2-28.6 9.4-42.6-7.3-8.7-20.9-11.2-31.7-5.9-3.2 1.6-6.6 3.9-7.7 5.3l-1.9 2.4H1406V227.2c0-89.8-.4-163.4-.9-165.5-1.2-4.9-4.5-9.8-8.9-12.8-3.5-2.4-3.9-2.4-29.6-2.7-25.8-.3-26.2-.3-30.6 2.1-3 1.6-5.5 4-7.5 7.2l-3 4.8-.5 81.1-.5 81.1h-26l-.3-43.8-.2-43.7h-63v34h-45v18l22.3.2 22.2.3v35l-34.4.3-34.4.2-7.3-7.9c-24.2-26-57.8-38.3-111.6-40.7l-15.8-.7V163h4c3.8 0 4-.2 4-3v-3h18V36.1l-8.7-.3-8.8-.3-.3-3.8c-.3-3.6-.4-3.7-4.3-3.7h-3.9V1h-17v13.5zM988 127v29.9l8.8.3c8.7.3 8.7.3 9 3 .3 2.5.7 2.8 4.3 2.8h3.9v11.9l-4.2.5c-2.4.3-9.2 1-15.3 1.6-20 2-102.4 15.4-258 41.9-107.3 18.3-148.6 24.5-176.7 26.7l-8.8.6v-71.1c0-47.8.3-71.1 1-71.1.6 0 4.6 1.8 9 4 31.7 15.9 74.6 30.1 109 35.9 41.5 7.1 93.1 8 144.5 2.5 34.5-3.6 67.3-8.9 90.5-14.5 28.7-7 60-19.6 75-30.3 3.6-2.5 6.8-4.6 7.3-4.6.4 0 .7 13.5.7 30zM536.5 244.8c-.9.9-23.3-3.8-38-8-51.5-14.5-124.6-43.9-150.7-60.8l-6.8-4.3V159h-44v-17c0-12.3.3-17 1.2-17 .6 0 9.9 2.7 20.7 5.9 37 11.2 60.5 14.6 93.1 13.8 22.3-.5 35.8-2.4 55.7-7.7 24.1-6.4 48.8-17.3 61.8-27.3l7-5.4.3 70c.1 38.5 0 70.2-.3 70.5zM257 145.5V159h-19.1l3.7-6.9c4.4-8.2 13-20.1 14.4-20.1.6 0 1 5.1 1 13.5zM236 174v10h-5.5c-3 0-5.5-.2-5.5-.5 0-1.7 9.7-19.5 10.6-19.5.2 0 .4 4.5.4 10zm10 116v95h-10.7l-1.2-11.3c-1.6-15.1-4.8-29.7-12.6-57.6-7.5-27.1-10.1-38.6-12.1-53.1-2.3-17.4-1.6-32.6 2.3-46.3 1.5-5.5 1.7-5.7 4.9-5.7h3.4v-16h26v95zm652 80.9c10 5.1 17.9 11.1 26.6 20.4 13.2 14 22 31.2 26.5 52 2.9 13.6 4.1 49.8 3.7 113.7l-.3 54.5-11.7 23c-23.4 46.1-43.9 80.1-62.6 104-7.6 9.8-21.2 23.7-26.9 27.6l-4.2 2.9H291v-69l17.3.2 17.2.3.3 6.8.3 6.7H339v-34h-13v14h-35v-14h13v-45.5c0-42.7.1-45.5 1.8-45.5.9 0 5.5-1.4 10.2-3 4.7-1.6 8.8-3 9.3-3 .4 0 .7 8.1.7 18v18h19v-51.2l3.6-4.1c1.9-2.3 5.1-7.3 7-11.1l3.4-6.9v-47.6c0-26.2.5-51.9 1-57.1 3.3-31.3 17.9-53.6 42.5-65 12-5.6 19.7-7.2 39-8 9.4-.4 114.4-.7 233.5-.6l216.5.2 6.5 3.3zM1206 556v12h12v33l-18.7-.2-18.7-.3-.7-2.5c-.4-1.4-.7-14.1-.8-28.3l-.1-25.7h27v12z"/></svg>